<svg height="24" viewBox="0 0 24 24" width="24" xmlns="http://www.w3.org/2000/svg"><path d="m20.487 17.14-4.065-3.696c-.399-.363-1.015-.344-1.391.043l-2.393 2.461c-.576-.11-1.734-.471-2.926-1.66-1.192-1.193-1.553-2.354-1.66-2.926l2.459-2.394c.388-.376.406-.991.043-1.391l-3.695-4.064c-.363-.401-.98-.439-1.391-.087l-2.17 1.861c-.173.174-.276.404-.29.649-.015.25-.301 6.172 4.291 10.766 4.006 4.005 9.024 4.298 10.406 4.298.202 0 .326-.006.359-.008.245-.014.475-.117.648-.291l1.86-2.171c.354-.411.315-1.027-.085-1.39z"/></svg>